<?xml version="1.0" encoding="us-ascii" standalone="no"?><svg xmlns="http://www.w3.org/2000/svg" xmlns:xlink="http://www.w3.org/1999/xlink" contentStyleType="text/css" height="793px" preserveAspectRatio="none" style="width:1378px;height:793px;background:#FFFFFF;" version="1.1" viewBox="0 0 1378 793" width="1378px" zoomAndPan="magnify"><defs/><g><!--cluster HMS - Patient Portal--><g id="cluster_HMS - Patient Portal"><rect fill="none" height="310" rx="2.5" ry="2.5" style="stroke:#181818;stroke-width:1.0;" width="1275" x="97" y="97.5"/><text fill="#000000" font-family="Arial" font-size="14" font-weight="bold" lengthAdjust="spacing" textLength="139" x="665" y="112.6318">HMS - Patient Portal</text></g><g id="elem_UC_Register"><ellipse cx="222.1285" cy="306.4247" fill="#F1F1F1" rx="49.1285" ry="14.4247" style="stroke:#181818;stroke-width:0.5;"/><text fill="#000000" font-family="Arial" font-size="14" lengthAdjust="spacing" textLength="53" x="192.8594" y="310.193">Register</text></g><g id="elem_UC_Login"><ellipse cx="1050.234" cy="356.3835" fill="#F1F1F1" rx="36.234" ry="14.3835" style="stroke:#181818;stroke-width:0.5;"/><text fill="#000000" font-family="Arial" font-size="14" lengthAdjust="spacing" textLength="35" x="1032.734" y="359.466">Login</text></g><g id="elem_UC_Browse"><ellipse cx="221.9424" cy="156.6885" fill="#F1F1F1" rx="108.9424" ry="24.1885" style="stroke:#181818;stroke-width:0.5;"/><text fill="#000000" font-family="Arial" font-size="14" lengthAdjust="spacing" textLength="184" x="129.9424" y="159.771">Browse Doctors/Departments</text></g><g id="elem_UC_Book"><ellipse cx="526.18" cy="216.536" fill="#F1F1F1" rx="78.18" ry="18.036" style="stroke:#181818;stroke-width:0.5;"/><text fill="#000000" font-family="Arial" font-size="14" lengthAdjust="spacing" textLength="115" x="468.68" y="219.6185">Book Appointment</text></g><g id="elem_UC_Summary"><ellipse cx="221.9409" cy="236.2882" fill="#F1F1F1" rx="89.4409" ry="20.2882" style="stroke:#181818;stroke-width:0.5;"/><text fill="#000000" font-family="Arial" font-size="14" lengthAdjust="spacing" textLength="141" x="151.4409" y="239.3707">View Clinical Summary</text></g><g id="elem_UC_ViewInv"><ellipse cx="525.8761" cy="365.5752" fill="#F1F1F1" rx="65.8761" ry="15.5752" style="stroke:#181818;stroke-width:0.5;"/><text fill="#000000" font-family="Arial" font-size="14" lengthAdjust="spacing" textLength="84" x="480.8761" y="369.3911">View Invoices</text></g><g id="elem_UC_Pay"><ellipse cx="804.7316" cy="376.7463" fill="#F1F1F1" rx="61.7316" ry="14.7463" style="stroke:#181818;stroke-width:0.5;"/><text fill="#000000" font-family="Arial" font-size="14" lengthAdjust="spacing" textLength="72" x="765.7316" y="380.5622">Pay Invoice</text></g><g id="elem_UC_Check"><ellipse cx="804.5807" cy="309.6161" fill="#F1F1F1" rx="76.0807" ry="17.6161" style="stroke:#181818;stroke-width:0.5;"/><text fill="#000000" font-family="Arial" font-size="14" lengthAdjust="spacing" textLength="110" x="749.5807" y="312.6987">Check Availability</text></g><g id="elem_UC_Cancel"><ellipse cx="804.3121" cy="237.5624" fill="#F1F1F1" rx="83.3121" ry="19.0624" style="stroke:#181818;stroke-width:0.5;"/><text fill="#000000" font-family="Arial" font-size="14" lengthAdjust="spacing" textLength="127" x="740.8121" y="240.6449">Cancel Appointment</text></g><g id="elem_UC_Support"><ellipse cx="1283.1857" cy="365.5371" fill="#F1F1F1" rx="73.1857" ry="17.0371" style="stroke:#181818;stroke-width:0.5;"/><text fill="#000000" font-family="Arial" font-size="14" lengthAdjust="spacing" textLength="103" x="1231.6857" y="368.6197">Contact Support</text></g><!--entity A_Patient--><g id="elem_A_Patient"><ellipse cx="28" cy="381" fill="#F1F1F1" rx="8" ry="8" style="stroke:#181818;stroke-width:0.5;"/><path d="M28,389 L28,416 M15,397 L41,397 M28,416 L15,431 M28,416 L41,431 " fill="none" style="stroke:#181818;stroke-width:0.5;"/><text fill="#000000" font-family="Arial" font-size="14" lengthAdjust="spacing" textLength="44" x="6" y="445.6318">Patient</text></g><!--entity UC_Summary.--><g id="elem_UC_Summary."><ellipse cx="1050" cy="720" fill="#F1F1F1" rx="8" ry="8" style="stroke:#181818;stroke-width:0.5;"/><path d="M1050,728 L1050,755 M1037,736 L1063,736 M1050,755 L1037,770 M1050,755 L1063,770 " fill="none" style="stroke:#181818;stroke-width:0.5;"/><text fill="#000000" font-family="Arial" font-size="14" lengthAdjust="spacing" textLength="90" x="1005" y="784.6318">UC_Summary.</text></g><!--entity UC_ViewInv.--><g id="elem_UC_ViewInv."><ellipse cx="1050" cy="14" fill="#F1F1F1" rx="8" ry="8" style="stroke:#181818;stroke-width:0.5;"/><path d="M1050,22 L1050,49 M1037,30 L1063,30 M1050,49 L1037,64 M1050,49 L1063,64 " fill="none" style="stroke:#181818;stroke-width:0.5;"/><text fill="#000000" font-family="Arial" font-size="14" lengthAdjust="spacing" textLength="78" x="1011" y="78.6318">UC_ViewInv.</text></g><!--link A_Patient to UC_Register--><g id="link_A_Patient_UC_Register"><path d="M50.05,377.75 C58.27,367.13 68.5,356.13 80,348.5 C109.37,329.01 142.16,319.4736 171.57,313.7636 " fill="none" id="A_Patient-to-UC_Register" style="stroke:#181818;stroke-width:1.0;"/><polygon fill="#181818" points="177.46,312.62,167.8626,310.4087,172.5517,313.573,169.3873,318.262,177.46,312.62" style="stroke:#181818;stroke-width:1.0;"/></g><!--link A_Patient to UC_Login--><g id="link_A_Patient_UC_Login"><path d="M48.64,448.91 C78.31,500.96 139.85,587.5 221,587.5 C221,587.5 221,587.5 805.5,587.5 C931.95,587.5 1016.4544,426.9579 1040.0344,376.3879 " fill="none" id="A_Patient-to-UC_Login" style="stroke:#181818;stroke-width:1.0;"/><polygon fill="#181818" points="1042.57,370.95,1035.1413,377.4164,1040.457,375.4816,1042.3919,380.7972,1042.57,370.95" style="stroke:#181818;stroke-width:1.0;"/></g><!--link A_Patient to UC_Browse--><g id="link_A_Patient_UC_Browse"><path d="M29.36,372.27 C31.88,325.22 43.23,245.77 89,198.5 C101.3,185.8 111.7828,179.012 128.5128,172.822 " fill="none" id="A_Patient-to-UC_Browse" style="stroke:#181818;stroke-width:1.0;"/><polygon fill="#181818" points="134.14,170.74,124.3112,170.1116,129.4507,172.475,127.0872,177.6145,134.14,170.74" style="stroke:#181818;stroke-width:1.0;"/></g><!--link A_Patient to UC_Book--><g id="link_A_Patient_UC_Book"><path d="M50.29,404.45 C59.41,401.91 70.21,398.97 80,396.5 C191.01,368.45 225.29,382.48 331,338.5 C398.22,310.53 463.7019,263.8522 498.3019,237.4222 " fill="none" id="A_Patient-to-UC_Book" style="stroke:#181818;stroke-width:1.0;"/><polygon fill="#181818" points="503.07,233.78,493.4898,236.0646,499.0966,236.8152,498.346,242.422,503.07,233.78" style="stroke:#181818;stroke-width:1.0;"/></g><!--link A_Patient to UC_Summary--><g id="link_A_Patient_UC_Summary"><path d="M36.5,372.34 C44.46,341.71 60.04,299.79 89,274.5 C104.45,261.01 118.6407,253.9479 138.3507,248.3179 " fill="none" id="A_Patient-to-UC_Summary" style="stroke:#181818;stroke-width:1.0;"/><polygon fill="#181818" points="144.12,246.67,134.3675,245.2957,139.3123,248.0433,136.5647,252.9881,144.12,246.67" style="stroke:#181818;stroke-width:1.0;"/></g><!--link A_Patient to UC_ViewInv--><g id="link_A_Patient_UC_ViewInv"><path d="M50.29,412.1 C109.27,416.06 279.53,424.4 418,400.5 C443.62,396.08 465.8877,388.9218 486.7577,381.0318 " fill="none" id="A_Patient-to-UC_ViewInv" style="stroke:#181818;stroke-width:1.0;"/><polygon fill="#181818" points="492.37,378.91,482.537,378.3511,487.6931,380.6781,485.366,385.8342,492.37,378.91" style="stroke:#181818;stroke-width:1.0;"/></g><!--link A_Patient to UC_Pay--><g id="link_A_Patient_UC_Pay"><path d="M50.14,417.13 C61.53,420.36 75.89,423.89 89,425.5 C316.49,453.5 376.04,422.34 604,398.5 C652.87,393.39 702.4573,387.8983 742.5173,383.4083 " fill="none" id="A_Patient-to-UC_Pay" style="stroke:#181818;stroke-width:1.0;"/><polygon fill="#181818" points="748.48,382.74,739.0905,379.7674,743.5111,383.2969,739.9815,387.7176,748.48,382.74" style="stroke:#181818;stroke-width:1.0;"/></g><!--link A_Patient to UC_Support--><g id="link_A_Patient_UC_Support"><path d="M32.54,448.87 C38.15,489.64 52.51,553.85 89,595.5 C131.84,644.39 155.99,658.5 221,658.5 C221,658.5 221,658.5 1051,658.5 C1192.54,658.5 1259.1811,450.8412 1276.1211,388.3112 " fill="none" id="A_Patient-to-UC_Support" style="stroke:#181818;stroke-width:1.0;"/><polygon fill="#181818" points="1277.69,382.52,1271.4758,390.1609,1276.3826,387.346,1279.1975,392.2528,1277.69,382.52" style="stroke:#181818;stroke-width:1.0;"/></g><!--link UC_Book to UC_Check--><g id="link_UC_Book_UC_Check"><path d="M570.81,231.24 C622.89,248.75 703.5331,275.8771 755.1131,293.2271 " fill="none" id="UC_Book-to-UC_Check" style="stroke:#181818;stroke-width:1.0;stroke-dasharray:7.0,7.0;"/><polygon fill="#181818" points="760.8,295.14,753.5449,288.4794,756.0609,293.5459,750.9944,296.0619,760.8,295.14" style="stroke:#181818;stroke-width:1.0;"/><text fill="#000000" font-family="Arial" font-size="13" lengthAdjust="spacing" textLength="55" x="635" y="252.6938">&#171;include&#187;</text></g><!--link UC_Book to UC_Pay--><g id="link_UC_Book_UC_Pay"><path d="M548.98,233.97 C570.22,250.55 603.57,275.8 634,295.5 C671.25,319.61 680.88,325.54 721,344.5 C736.56,351.85 748.6664,356.8084 763.6964,362.3984 " fill="none" id="UC_Book-to-UC_Pay" style="stroke:#181818;stroke-width:1.0;stroke-dasharray:7.0,7.0;"/><polygon fill="#181818" points="769.32,364.49,762.2789,357.6036,764.6336,362.747,759.4902,365.1018,769.32,364.49" style="stroke:#181818;stroke-width:1.0;"/><text fill="#000000" font-family="Arial" font-size="13" lengthAdjust="spacing" textLength="53" x="636" y="292.6938">&#171;extend&#187;</text></g><!--link UC_Book to UC_Cancel--><g id="link_UC_Book_UC_Cancel"><path d="M601.73,221.17 C629.74,223.01 661.84,225.23 691,227.5 C702.53,228.4 708.7522,228.9039 720.6822,229.9339 " fill="none" id="UC_Book-to-UC_Cancel" style="stroke:#181818;stroke-width:1.0;stroke-dasharray:7.0,7.0;"/><polygon fill="#181818" points="726.66,230.45,718.0374,225.6907,721.6785,230.0199,717.3493,233.661,726.66,230.45" style="stroke:#181818;stroke-width:1.0;"/><text fill="#000000" font-family="Arial" font-size="13" lengthAdjust="spacing" textLength="53" x="636" y="221.6938">&#171;extend&#187;</text></g><!--link UC_ViewInv to UC_Pay--><g id="link_UC_ViewInv_UC_Pay"><path d="M591.13,368.05 C637.08,369.88 692.5347,372.0814 737.5047,373.8714 " fill="none" id="UC_ViewInv-to-UC_Pay" style="stroke:#181818;stroke-width:1.0;stroke-dasharray:7.0,7.0;"/><polygon fill="#181818" points="743.5,374.11,734.6662,369.7552,738.504,373.9111,734.348,377.7489,743.5,374.11" style="stroke:#181818;stroke-width:1.0;"/><text fill="#000000" font-family="Arial" font-size="13" lengthAdjust="spacing" textLength="55" x="635" y="367.6938">&#171;include&#187;</text></g><!--link UC_Browse to UC_Book--><g id="link_UC_Browse_UC_Book"><path d="M303.53,172.5 C354.73,182.67 413.9751,194.4406 460.3251,203.6506 " fill="none" id="UC_Browse-to-UC_Book" style="stroke:#181818;stroke-width:1.0;stroke-dasharray:7.0,7.0;"/><polygon fill="#181818" points="466.21,204.82,458.1622,199.1426,461.3059,203.8455,456.603,206.9892,466.21,204.82" style="stroke:#181818;stroke-width:1.0;"/><text fill="#000000" font-family="Arial" font-size="13" lengthAdjust="spacing" textLength="55" x="362" y="182.6938">&#171;include&#187;</text></g><!--link UC_Book to UC_Login--><g id="link_UC_Book_UC_Login"><path d="M574.4,202.29 C645.49,183.59 782.61,157.82 888,200.5 C960.51,229.87 1015.1154,304.2754 1036.6454,337.0454 " fill="none" id="UC_Book-to-UC_Login" style="stroke:#181818;stroke-width:1.0;stroke-dasharray:7.0,7.0;"/><polygon fill="#181818" points="1039.94,342.06,1038.3412,332.3418,1037.1945,337.8812,1031.6551,336.7346,1039.94,342.06" style="stroke:#181818;stroke-width:1.0;"/><text fill="#000000" font-family="Arial" font-size="13" lengthAdjust="spacing" textLength="55" x="777" y="174.6938">&#171;include&#187;</text></g><!--link UC_Summary. to UC_Login--><g id="link_UC_Summary._UC_Login"><path d="M1050,711.46 C1050,627.09 1050,433.3 1050,377.31 " fill="none" id="UC_Summary.-to-UC_Login" style="stroke:#181818;stroke-width:1.0;stroke-dasharray:7.0,7.0;"/><polygon fill="#181818" points="1050,371.31,1046,380.31,1050,376.31,1054,380.31,1050,371.31" style="stroke:#181818;stroke-width:1.0;"/><text fill="#000000" font-family="Arial" font-size="13" lengthAdjust="spacing" textLength="55" x="1011.5" y="546.4438">&#171;include&#187;</text></g><!--link UC_ViewInv. to UC_Login--><g id="link_UC_ViewInv._UC_Login"><path d="M1050,81.68 C1050,151.19 1050,289.47 1050,335.82 " fill="none" id="UC_ViewInv.-to-UC_Login" style="stroke:#181818;stroke-width:1.0;stroke-dasharray:7.0,7.0;"/><polygon fill="#181818" points="1050,341.82,1054,332.82,1050,336.82,1046,332.82,1050,341.82" style="stroke:#181818;stroke-width:1.0;"/><text fill="#000000" font-family="Arial" font-size="13" lengthAdjust="spacing" textLength="55" x="1011.5" y="216.9438">&#171;include&#187;</text></g><!--link UC_Pay to UC_Login--><g id="link_UC_Pay_UC_Login"><path d="M862.9,371.79 C910,367.92 969.1602,363.0617 1008.5602,359.8217 " fill="none" id="UC_Pay-to-UC_Login" style="stroke:#181818;stroke-width:1.0;stroke-dasharray:7.0,7.0;"/><polygon fill="#181818" points="1014.54,359.33,1005.2424,356.0811,1009.5568,359.7398,1005.8981,364.0542,1014.54,359.33" style="stroke:#181818;stroke-width:1.0;"/><text fill="#000000" font-family="Arial" font-size="13" lengthAdjust="spacing" textLength="55" x="919" y="360.6938">&#171;include&#187;</text></g><!--link UC_Login to UC_Support--><g id="link_UC_Login_UC_Support"><path d="M1086.08,357.87 C1119.03,359.15 1163.2945,360.8767 1204.6645,362.4867 " fill="none" id="UC_Login-to-UC_Support" style="stroke:#181818;stroke-width:1.0;stroke-dasharray:7.0,7.0;"/><polygon fill="#181818" points="1210.66,362.72,1201.8224,358.373,1205.6638,362.5256,1201.5113,366.367,1210.66,362.72" style="stroke:#181818;stroke-width:1.0;"/><text fill="#000000" font-family="Arial" font-size="13" lengthAdjust="spacing" textLength="53" x="1126" y="356.6938">&#171;extend&#187;</text></g><!--SRC=[VLBBQXH15DtNLroooGHCiX_2m3X155IYKRUXKbtJLKnrLLDLdGVYGbouSf6LY1k3144Dw4B4xeMB3lv7_uct-fLCEcJJpRtdr7sSSzr2wfHQca1Yj672ceI3jnadhaUSe94vb3g6ELNkAXBnESsKlsUqVqpnuTHAgeZYSm_UW9Mny119ovcNHXD2cJSMTgYNN7kW3gPxRK18854TAmuhzn_jmdfFsp7MKxK2Bmd0w2cFfVFSheNNpsTxNHomXoQMkWFg86JlMdFeE6oRqDjjRdESt2TOs7NKXb5pZLd0D4sDr3MbPs0-u2yaFuIPabeogc0tIn9gZpjI6_Qy1_h0ICRxDY69kO3lqECExb1C1MGcECCH3gXKT5ygwVloDL9Jg6PStJHcWzGSD0J5nX6HPVtbY7L8NX6o2bFd39CqEEDW5CkgE467z_47h2hE68ZoknQGLFctR0oDTVlbLutNKPxAEy3AKuP5uQZA_wOGLSKxjaPwGs5zVR9aq01f71gaMpU6-U318Dk9FW0wjGT04Fg6CeqmACkJZ6eGLV4Mf6OgY_WcF_9SHp2Ag1CyMiFJBCyzQF7l1-fbor-adGusDYQzKp26hQssmcHodH8E06fAKtp8QBnSOf3BjQxMMMv4UWaxJbtr6caLPi4zKNv2XozEgk83hiAg_8l6wE8D1bfK-NcAkyPehCQpo7zYjYq1lYe-IcWSx5f0rx1E3_TlhRgTrEvtEwbHxxPskE2pyiynC16c7uEIuN1hL_7p7a-uAZx3GaXSB_-Tma6Ld-bQYDVB0f2-GTUkFPLby_u3]--></g></svg>